<svg width="1772" height="373" viewBox="0 0 1772 373" fill="none" xmlns="http://www.w3.org/2000/svg">
<g clip-path="url(#clip0_29_258)">
<path d="M200.679 40.4973L189.108 80.609H186.408C164.421 28.9267 136.263 9.25651 105.791 9.25651C67.6038 9.25651 45.6173 30.8551 43.303 53.9965C35.9742 131.134 201.451 105.679 201.451 202.101C201.451 247.998 160.178 280.396 105.405 280.396C59.5035 280.396 30.9597 264.968 0.873047 242.213L12.4448 198.244H15.1449C34.817 237.585 70.6896 272.682 121.22 272.682C154.007 272.682 181.393 251.469 184.479 227.171C194.508 145.019 28.6454 171.246 28.6454 74.438C28.6454 43.1972 53.7176 4.24255 115.82 4.24255C145.521 4.24255 177.922 22.7556 200.679 40.4973Z" fill="#FFF6E2"/>
<path d="M419.772 168.546C422.086 264.197 333.369 280.396 290.168 280.396C281.682 280.396 273.967 278.853 267.41 276.925V343.263C267.41 356.763 268.567 360.619 275.896 361.776V364.476L239.638 372.961H236.938V122.264C236.938 108.764 235.78 104.907 228.452 103.75V101.051L264.71 92.5654H267.41V198.244C274.353 153.504 294.025 92.5654 348.027 92.5654C379.657 92.5654 418.229 119.564 419.772 168.546ZM389.685 163.147C387.757 129.592 364.227 92.9511 331.055 99.5078C287.854 107.993 267.41 188.602 267.41 221V274.611C269.339 275.382 278.21 278.468 290.554 278.082C327.583 277.696 395.086 261.497 389.685 163.147Z" fill="#FFF6E2"/>
<path d="M491.132 275.382V278.082H443.302V275.382C449.088 271.911 451.788 266.126 451.788 252.626V122.263C451.788 108.764 450.631 104.907 443.302 103.75V101.051L479.56 92.5654H482.26V252.626C482.26 266.126 484.96 271.911 491.132 275.382ZM447.93 43.1972C447.93 33.1693 456.031 25.0698 466.06 25.0698C476.089 25.0698 484.189 33.1693 484.189 43.1972C484.189 53.2251 476.089 61.3246 466.06 61.3246C456.031 61.3246 447.93 53.2251 447.93 43.1972Z" fill="#FFF6E2"/>
<path d="M708.682 275.382V278.082H660.852V275.382C667.023 271.911 668.566 265.354 667.409 252.626C666.252 239.899 660.466 174.717 658.537 154.661C655.837 125.735 641.565 92.9511 608.393 99.5078C565.191 107.993 557.091 188.602 557.091 221V252.626C557.091 266.126 559.791 271.911 565.963 275.382V278.082H518.133V275.382C523.919 271.911 526.619 266.126 526.619 252.626V122.263C526.619 108.764 525.462 104.907 518.133 103.75V101.051L554.391 92.5654H557.091V188.216C562.106 145.019 575.22 92.5654 625.365 92.5654C656.994 92.5654 683.995 114.164 688.624 160.447C692.481 197.859 696.339 238.356 697.881 252.626C699.424 266.511 702.896 271.911 708.682 275.382Z" fill="#FFF6E2"/>
<path d="M921.217 275.382V278.082H856.415V275.382C862.587 272.682 867.987 265.74 859.115 253.398L807.813 185.902L788.141 211.358C761.14 246.455 752.654 267.668 768.469 275.382V278.082H720.253V275.382C743.397 265.354 756.126 249.541 783.898 212.9L806.27 183.974L758.826 121.878C749.183 109.15 738.383 99.5078 727.197 95.6509V92.5654H791.999V95.6509C785.827 98.3508 780.041 105.293 789.684 118.021L829.8 170.86L838.671 159.29C865.672 124.578 874.158 102.979 858.729 95.6509V92.5654H906.559V95.6509C883.416 105.293 870.687 121.492 842.915 157.747L831.343 172.789L889.202 248.77C899.231 261.883 909.645 271.525 921.217 275.382Z" fill="#FFF6E2"/>
<path d="M978.652 259.183C978.652 270.754 969.394 280.396 957.822 280.396C946.251 280.396 936.607 270.754 936.607 259.183C936.607 247.612 946.251 238.356 957.822 238.356C969.394 238.356 978.652 247.612 978.652 259.183Z" fill="#FBBC05"/>
<path d="M1273.77 201.715C1252.94 244.913 1215.91 280.396 1147.64 280.396C1071.65 280.396 1005.69 218.686 1005.69 142.319C1005.69 65.9528 1074.74 4.24255 1151.11 4.24255C1192.77 4.24255 1217.84 15.0418 1250.63 36.6404L1239.06 80.609H1236.36C1208.2 35.8691 1162.3 2.6998 1111.77 13.4991C1045.81 27.7696 1021.89 105.679 1042.72 173.946C1063.55 241.827 1119.1 277.31 1186.98 266.897C1221.7 261.883 1251.4 239.127 1271.07 200.558L1273.77 201.715Z" fill="#FFF6E2"/>
<path d="M1344.32 275.382V278.082H1296.88V275.382C1302.66 271.911 1305.36 266.126 1305.36 252.626V29.6981C1305.36 16.1989 1304.2 12.3421 1296.88 11.185V8.09947L1333.13 0H1335.83V252.626C1335.83 266.126 1338.53 271.911 1344.32 275.382Z" fill="#FFF6E2"/>
<path d="M1551.11 278.082H1511.76V184.359C1506.75 227.942 1493.64 280.396 1443.49 280.396C1408 280.396 1379.85 258.026 1379.85 212.515V122.263C1379.85 108.764 1378.69 104.907 1371.36 103.75V101.051L1407.62 92.5654H1410.32V218.3C1410.32 251.855 1427.68 279.625 1460.85 273.454C1504.05 264.968 1511.76 184.359 1511.76 151.962V122.263C1511.76 108.764 1510.61 104.907 1503.28 103.75V101.051L1539.54 92.5654H1542.24V252.626C1542.24 266.126 1544.94 271.911 1551.11 275.382V278.082Z" fill="#FFF6E2"/>
<path d="M1769.43 168.546C1772.13 264.197 1683.41 280.396 1640.21 280.396C1620.15 280.396 1605.11 271.911 1597.4 272.297C1592 272.682 1590.07 277.696 1589.3 280.396H1586.98V29.6981C1586.98 16.1989 1585.82 12.3421 1578.11 11.185V8.09947L1614.75 0H1617.45V198.244C1624.4 153.504 1644.07 92.5654 1698.07 92.5654C1729.7 92.5654 1768.27 119.564 1769.43 168.546ZM1739.69 163.147C1737.76 129.592 1713.85 92.9511 1681.06 99.5078C1637.47 107.993 1617.41 188.602 1617.41 221V274.611C1619.34 275.382 1628.22 278.468 1640.56 278.082C1677.59 277.696 1745.09 261.497 1739.69 163.147Z" fill="#FFF6E2"/>
<path d="M1771.13 311.752H309.455V321.24H1771.13V311.752Z" fill="#FFF6E2"/>
</g>
<defs>
<clipPath id="clip0_29_258">
<rect width="1770.25" height="373" fill="white" transform="translate(0.873047)"/>
</clipPath>
</defs>
</svg>
