<svg width="478" height="345" viewBox="0 0 478 345" fill="none" xmlns="http://www.w3.org/2000/svg">
<path d="M116.66 342.612L114.65 344.862H77.02C48.44 344.862 38.99 344.562 37.75 343.612C36.86 342.922 28.61 329.092 19.43 312.862C10.24 296.632 2.11 282.472 1.36 281.392C0.610001 280.302 0 278.802 0 278.042C0 276.612 6.26 265.592 51.81 186.862C66.93 160.742 83.43 132.162 88.49 123.362C93.54 114.562 100.3 102.862 103.5 97.3616C106.69 91.8616 112.25 82.1816 115.85 75.8616C124.07 61.4116 129.01 54.8916 138.14 46.4416C158.81 27.3016 193.2 11.3516 229.91 3.88163C246.21 0.571631 258.43 -0.448368 274.46 0.171632C292.01 0.851632 301.37 2.92163 313.79 8.85163C325.39 14.3816 330.71 20.0716 340.48 37.3616C344.83 45.0616 350.93 55.8616 354.04 61.3616C357.15 66.8616 367.8 85.5416 377.71 102.862C387.61 120.182 406.85 153.942 420.44 177.862C434.04 201.782 446.89 224.282 448.99 227.862C462.68 251.152 474.02 272.192 475.42 276.882C478.82 288.282 478.24 303.392 473.85 317.862C471.8 324.642 465.69 338.402 463.31 341.612L460.9 344.862H385.35L383.17 342.552C381.98 341.272 381 339.232 381 338.012C381 335.992 390.37 319.162 411.4 283.362C423.08 263.482 428.18 248.512 428.25 233.862C428.29 226.552 426.64 217.862 425.21 217.862C424.82 217.872 423.71 221.062 422.74 224.972C419.44 238.232 416.02 245.072 391.51 287.362C388.32 292.862 381.45 304.782 376.23 313.862C362.4 337.922 359.77 342.222 358.05 343.582C356.9 344.492 346.88 344.802 318.82 344.832L281.15 344.862L279.07 342.232C277.93 340.782 277 338.912 277 338.082C277 337.262 281.81 328.202 287.69 317.972C315.41 269.722 336.74 232.672 347.04 214.862C365.27 183.352 366.68 180.732 369.86 172.732C374.48 161.092 376.24 153.192 376.32 143.862C376.38 135.782 374.75 126.852 373.21 126.872C372.82 126.882 371.53 130.892 370.34 135.792C367.88 145.972 361.61 159.412 350.25 178.862C345.91 186.282 331.84 210.592 318.99 232.862C306.14 255.132 289.25 284.382 281.47 297.862C273.69 311.342 264.69 327.002 261.49 332.672C258.28 338.342 254.86 343.402 253.89 343.922C252.88 344.462 236.17 344.862 214.61 344.862H177.09L175.5 342.612C173.87 340.312 165.66 326.472 153.53 305.612C149.78 299.152 146.42 293.862 146.07 293.862C145.73 293.862 139.42 304.322 132.06 317.112C124.7 329.902 117.77 341.372 116.66 342.612ZM21.45 268.132C20.81 269.792 22.28 269.882 47.01 269.632L73.25 269.362L80.77 256.362C94.18 233.162 103.1 217.682 112.74 200.862C117.94 191.782 122.9 183.572 123.75 182.612C125.18 181.002 128.36 180.862 162.93 180.862H164.09C195.6 180.862 202.84 180.862 204.51 183.912C205 184.812 205 186.002 205 187.532V187.722C205 189.782 204.59 191.892 204.09 192.412C203.58 192.932 199.15 200.342 194.24 208.862C189.33 217.382 180.9 232.012 175.5 241.362C170.1 250.712 164.2 260.952 162.39 264.132L159.09 269.892L211.34 269.362L216.28 260.862C219 256.192 222.93 249.442 225.01 245.862C227.1 242.282 236.11 226.762 245.04 211.362C253.97 195.962 267.58 172.562 275.29 159.362C304.47 109.382 312.6 95.1416 316.14 87.8616C326.84 65.8316 324.95 45.8516 310.83 31.7416C287.06 7.96164 231.2 5.81164 186.11 26.9316C173.59 32.8016 161.58 41.2616 151.45 51.3516C141.19 61.5716 138.71 65.2516 117.86 101.362C109.6 115.662 101.13 130.292 99.03 133.862C94.55 141.482 77.89 170.232 66 190.862C61.4 198.842 55.47 209.072 52.82 213.612L43.18 230.112C29.07 254.262 22.05 266.542 21.45 268.132ZM236.6 134.092C236 134.502 218.55 134.842 197.82 134.842L160.15 134.862L158.07 132.232C156.93 130.782 156 128.962 156 128.202C156 127.432 160.84 118.202 166.75 107.692C178.55 86.7116 185.29 78.5716 196.31 72.0116C221.7 56.8816 252.4 57.3916 260.59 73.0616C262.38 76.4916 262.4 85.2116 260.63 91.0816C259.21 95.8016 238.54 132.802 236.6 134.092ZM71.92 330.092C85.99 330.242 97.65 330.012 97.84 329.592C98.03 329.172 94.84 323.092 90.76 316.092C86.68 309.092 80.95 299.202 78.04 294.112L72.75 284.862H46.79C32.51 284.862 20.98 285.252 21.17 285.722C21.35 286.192 27.09 296.302 33.92 308.202L46.34 329.832L71.92 330.092ZM174.31 312.112L184.5 329.862H210.36C230.64 329.862 236.11 329.592 235.73 328.612C235.46 327.922 229.81 317.912 223.18 306.362L211.11 285.362L158.81 284.832L161.47 289.592C162.93 292.212 168.71 302.352 174.31 312.112Z" fill="#FDFDFD"/>
</svg>
