<svg width="478" height="345" viewBox="0 0 478 345" fill="none" xmlns="http://www.w3.org/2000/svg">
<path d="M309.309 30.455C317.08 37.7413 322.737 46.8879 323.336 57.7089C323.851 82.637 311.155 101.585 298.894 122.356C295.728 127.744 292.616 133.163 289.5 138.58C281.81 151.931 274.045 165.237 266.271 178.539C264.534 181.511 262.798 184.483 261.062 187.455C260.488 188.439 259.914 189.422 259.322 190.435C255.002 197.844 250.716 205.272 246.438 212.705C242.867 218.906 239.291 225.103 235.656 231.267C234.86 232.625 234.86 232.625 234.047 234.011C232.976 235.804 231.878 237.583 230.756 239.345C227.68 244.251 225.554 248.707 223.941 254.283C219.679 266.888 219.679 266.888 214.044 270.675C198.683 277.476 175.276 272.951 159 271.58C160.418 267.959 162.002 264.614 163.906 261.221C164.767 259.684 164.767 259.684 165.644 258.117C166.257 257.033 166.869 255.948 167.5 254.83C168.134 253.703 168.767 252.577 169.42 251.416C173.241 244.64 177.113 237.9 181.084 231.211C185.768 223.317 190.334 215.355 194.912 207.399C195.527 206.329 196.143 205.26 196.777 204.158C197.326 203.203 197.875 202.248 198.441 201.265C199.489 199.461 200.56 197.671 201.655 195.895C203.113 193.386 203.697 191.458 204 188.58C203.67 187.59 203.34 186.6 203 185.58C194.896 182.879 185.685 183.43 177.227 183.447C176.141 183.446 175.055 183.445 173.937 183.444C171.656 183.444 169.375 183.445 167.095 183.45C163.641 183.455 160.188 183.45 156.734 183.443C151.387 183.438 146.042 183.483 140.695 183.558C138.365 183.577 136.043 183.547 133.714 183.495C127.969 183.451 127.969 183.451 123.165 186.191C121.489 188.562 120.264 190.966 119 193.58C117.811 195.639 116.613 197.692 115.406 199.74C114.44 201.443 113.473 203.146 112.511 204.851C110.755 207.962 108.988 211.065 107.223 214.17C106.866 214.798 106.509 215.426 106.141 216.073C102.783 221.976 99.3686 227.844 95.9375 233.705C88.5682 246.298 81.2833 258.937 74 271.58C56.51 271.58 39.02 271.58 21 271.58C21.9081 267.04 22.8463 264.71 25.1055 260.81C25.7521 259.687 26.3987 258.563 27.0649 257.405C27.7723 256.193 28.4798 254.98 29.1875 253.767C29.9164 252.507 30.6448 251.246 31.3726 249.985C33.2227 246.784 35.0815 243.587 36.9437 240.393C38.5264 237.677 40.1045 234.958 41.6836 232.24C45.679 225.373 49.6939 218.518 53.709 211.662C60.841 199.48 67.9037 187.261 74.8852 174.992C80.4776 165.172 86.21 155.44 91.9951 145.732C96.7907 137.666 101.484 129.548 106.125 121.392C137.874 65.6316 137.874 65.6316 150 53.58C150.674 52.8362 151.348 52.0924 152.043 51.3261C186.923 13.7776 266.84 -4.03739 309.309 30.455Z" fill="#F06236"/>
<path d="M21 286.58C38.49 286.58 55.98 286.58 74 286.58C80.5 298.205 80.5 298.205 82.6084 301.978C86.585 309.085 86.585 309.085 90.6406 316.146C91.0061 316.775 91.3715 317.404 91.748 318.052C92.6762 319.641 93.6112 321.226 94.5469 322.811C96.0488 325.673 97.0661 328.49 98 331.58C95.1693 332.524 93.4316 332.707 90.5002 332.709C89.5924 332.713 88.6846 332.716 87.7493 332.719C86.7711 332.717 85.793 332.715 84.7852 332.713C83.7779 332.714 82.7706 332.715 81.7328 332.716C79.6019 332.716 77.471 332.715 75.3401 332.71C72.0789 332.705 68.8178 332.71 65.5566 332.717C63.487 332.716 61.4173 332.715 59.3477 332.713C58.3715 332.715 57.3954 332.717 56.3897 332.719C55.4787 332.716 54.5677 332.713 53.6292 332.709C52.4303 332.708 52.4303 332.708 51.2072 332.707C48.9751 332.579 47.1104 332.321 45 331.58C43.3118 329.242 43.3118 329.242 41.6445 326.139C40.7165 324.437 40.7165 324.437 39.7698 322.701C39.1171 321.473 38.4646 320.246 37.8125 319.018C37.1438 317.781 36.4738 316.544 35.8025 315.309C34.4746 312.863 33.1525 310.414 31.834 307.963C29.118 302.953 26.2931 298.008 23.4387 293.076C21 288.797 21 288.797 21 286.58Z" fill="#F06236"/>
<path d="M158 286.58C175.82 286.58 193.64 286.58 212 286.58C214.104 290.354 216.207 294.129 218.375 298.018C223.166 306.608 228.009 315.155 233.154 323.539C236 328.259 236 328.259 236 331.58C228.705 331.809 221.411 331.966 214.113 332.074C211.631 332.12 209.15 332.181 206.669 332.259C203.099 332.368 199.532 332.419 195.961 332.459C194.854 332.505 193.748 332.552 192.608 332.6C185.085 332.605 185.085 332.605 182.056 329.744C180.479 327.424 179.218 325.105 178 322.58C177.347 321.472 176.694 320.364 176.021 319.223C175.173 317.683 175.173 317.683 174.309 316.111C173.674 314.963 173.039 313.814 172.385 312.631C171.736 311.447 171.086 310.264 170.438 309.08C169.785 307.896 169.132 306.713 168.479 305.529C167.267 303.333 166.057 301.136 164.849 298.938C162.577 294.812 160.287 290.697 158 286.58Z" fill="#F06236"/>
<path d="M116.66 342.612L114.65 344.862H77.02C48.44 344.862 38.99 344.562 37.75 343.612C36.86 342.922 28.61 329.092 19.43 312.862C10.24 296.632 2.11 282.472 1.36 281.392C0.610001 280.302 0 278.802 0 278.042C0 276.612 6.26 265.592 51.81 186.862C66.93 160.742 83.43 132.162 88.49 123.362C93.54 114.562 100.3 102.862 103.5 97.3616C106.69 91.8616 112.25 82.1816 115.85 75.8616C124.07 61.4116 129.01 54.8916 138.14 46.4416C158.81 27.3016 193.2 11.3516 229.91 3.88163C246.21 0.571631 258.43 -0.448368 274.46 0.171632C292.01 0.851632 301.37 2.92163 313.79 8.85163C325.39 14.3816 330.71 20.0716 340.48 37.3616C344.83 45.0616 350.93 55.8616 354.04 61.3616C357.15 66.8616 367.8 85.5416 377.71 102.862C387.61 120.182 406.85 153.942 420.44 177.862C434.04 201.782 446.89 224.282 448.99 227.862C462.68 251.152 474.02 272.192 475.42 276.882C478.82 288.282 478.24 303.392 473.85 317.862C471.8 324.642 465.69 338.402 463.31 341.612L460.9 344.862H385.35L383.17 342.552C381.98 341.272 381 339.232 381 338.012C381 335.992 390.37 319.162 411.4 283.362C423.08 263.482 428.18 248.512 428.25 233.862C428.29 226.552 426.64 217.862 425.21 217.862C424.82 217.872 423.71 221.062 422.74 224.972C419.44 238.232 416.02 245.072 391.51 287.362C388.32 292.862 381.45 304.782 376.23 313.862C362.4 337.922 359.77 342.222 358.05 343.582C356.9 344.492 346.88 344.802 318.82 344.832L281.15 344.862L279.07 342.232C277.93 340.782 277 338.912 277 338.082C277 337.262 281.81 328.202 287.69 317.972C315.41 269.722 336.74 232.672 347.04 214.862C365.27 183.352 366.68 180.732 369.86 172.732C374.48 161.092 376.24 153.192 376.32 143.862C376.38 135.782 374.75 126.852 373.21 126.872C372.82 126.882 371.53 130.892 370.34 135.792C367.88 145.972 361.61 159.412 350.25 178.862C345.91 186.282 331.84 210.592 318.99 232.862C306.14 255.132 289.25 284.382 281.47 297.862C273.69 311.342 264.69 327.002 261.49 332.672C258.28 338.342 254.86 343.402 253.89 343.922C252.88 344.462 236.17 344.862 214.61 344.862H177.09L175.5 342.612C173.87 340.312 165.66 326.472 153.53 305.612C149.78 299.152 146.42 293.862 146.07 293.862C145.73 293.862 139.42 304.322 132.06 317.112C124.7 329.902 117.77 341.372 116.66 342.612ZM21.45 268.132C20.81 269.792 22.28 269.882 47.01 269.632L73.25 269.362L80.77 256.362C94.18 233.162 103.1 217.682 112.74 200.862C117.94 191.782 122.9 183.572 123.75 182.612C125.18 181.002 128.36 180.862 162.93 180.862H164.09C195.6 180.862 202.84 180.862 204.51 183.912C205 184.812 205 186.002 205 187.532V187.722C205 189.782 204.59 191.892 204.09 192.412C203.58 192.932 199.15 200.342 194.24 208.862C189.33 217.382 180.9 232.012 175.5 241.362C170.1 250.712 164.2 260.952 162.39 264.132L159.09 269.892L211.34 269.362L216.28 260.862C219 256.192 222.93 249.442 225.01 245.862C227.1 242.282 236.11 226.762 245.04 211.362C253.97 195.962 267.58 172.562 275.29 159.362C304.47 109.382 312.6 95.1416 316.14 87.8616C326.84 65.8316 324.95 45.8516 310.83 31.7416C287.06 7.96164 231.2 5.81164 186.11 26.9316C173.59 32.8016 161.58 41.2616 151.45 51.3516C141.19 61.5716 138.71 65.2516 117.86 101.362C109.6 115.662 101.13 130.292 99.03 133.862C94.55 141.482 77.89 170.232 66 190.862C61.4 198.842 55.47 209.072 52.82 213.612L43.18 230.112C29.07 254.262 22.05 266.542 21.45 268.132ZM236.6 134.092C236 134.502 218.55 134.842 197.82 134.842L160.15 134.862L158.07 132.232C156.93 130.782 156 128.962 156 128.202C156 127.432 160.84 118.202 166.75 107.692C178.55 86.7116 185.29 78.5716 196.31 72.0116C221.7 56.8816 252.4 57.3916 260.59 73.0616C262.38 76.4916 262.4 85.2116 260.63 91.0816C259.21 95.8016 238.54 132.802 236.6 134.092ZM71.92 330.092C85.99 330.242 97.65 330.012 97.84 329.592C98.03 329.172 94.84 323.092 90.76 316.092C86.68 309.092 80.95 299.202 78.04 294.112L72.75 284.862H46.79C32.51 284.862 20.98 285.252 21.17 285.722C21.35 286.192 27.09 296.302 33.92 308.202L46.34 329.832L71.92 330.092ZM174.31 312.112L184.5 329.862H210.36C230.64 329.862 236.11 329.592 235.73 328.612C235.46 327.922 229.81 317.912 223.18 306.362L211.11 285.362L158.81 284.832L161.47 289.592C162.93 292.212 168.71 302.352 174.31 312.112Z" fill="#FDFDFD"/>
</svg>
